<?xml version="1.0" encoding="UTF-8" standalone="no"?>
<!-- Created with Inkscape (http://www.inkscape.org/) -->

<svg
   xmlns:dc="http://purl.org/dc/elements/1.1/"
   xmlns:cc="http://creativecommons.org/ns#"
   xmlns:rdf="http://www.w3.org/1999/02/22-rdf-syntax-ns#"
   xmlns:svg="http://www.w3.org/2000/svg"
   xmlns="http://www.w3.org/2000/svg"
   xmlns:sodipodi="http://sodipodi.sourceforge.net/DTD/sodipodi-0.dtd"
   xmlns:inkscape="http://www.inkscape.org/namespaces/inkscape"
   width="148mm"
   height="105mm"
   viewBox="0 0 148 105"
   version="1.1"
   id="svg4526"
   inkscape:version="0.92.3 (2405546, 2018-03-11)"
   sodipodi:docname="ch7_flow_regimes.svg">
  <defs
     id="defs4520" />
  <sodipodi:namedview
     id="base"
     pagecolor="#ffffff"
     bordercolor="#666666"
     borderopacity="1.0"
     inkscape:pageopacity="0.0"
     inkscape:pageshadow="2"
     inkscape:zoom="1.4142136"
     inkscape:cx="303.81764"
     inkscape:cy="236.4592"
     inkscape:document-units="mm"
     inkscape:current-layer="layer1"
     showgrid="false"
     inkscape:object-paths="true"
     inkscape:snap-intersection-paths="true"
     inkscape:snap-smooth-nodes="true"
     inkscape:snap-object-midpoints="true"
     inkscape:window-width="1853"
     inkscape:window-height="1025"
     inkscape:window-x="67"
     inkscape:window-y="27"
     inkscape:window-maximized="1" />
  <metadata
     id="metadata4523">
    <rdf:RDF>
      <cc:Work
         rdf:about="">
        <dc:format>image/svg+xml</dc:format>
        <dc:type
           rdf:resource="http://purl.org/dc/dcmitype/StillImage" />
        <dc:title></dc:title>
      </cc:Work>
    </rdf:RDF>
  </metadata>
  <g
     inkscape:label="Layer 1"
     inkscape:groupmode="layer"
     id="layer1"
     transform="translate(0,-192)">
    <g
       id="g1840">
      <circle
         r="9.9494238"
         cy="221.91887"
         cx="35"
         id="path5075"
         style="opacity:0.98999999;fill:#ffffff;fill-opacity:1;stroke:#000000;stroke-width:0.3;stroke-miterlimit:4;stroke-dasharray:none;stroke-opacity:1" />
      <path
         inkscape:connector-curvature="0"
         id="path5108"
         d="M 3,221.86771 H 25"
         style="fill:none;stroke:#646464;stroke-width:0.3;stroke-linecap:butt;stroke-linejoin:miter;stroke-miterlimit:4;stroke-dasharray:none;stroke-opacity:1" />
      <path
         inkscape:connector-curvature="0"
         id="path5108-5"
         d="M 45,221.88469 H 67"
         style="fill:none;stroke:#646464;stroke-width:0.3;stroke-linecap:butt;stroke-linejoin:miter;stroke-miterlimit:4;stroke-dasharray:none;stroke-opacity:1" />
      <path
         sodipodi:nodetypes="ccc"
         inkscape:connector-curvature="0"
         id="path5125"
         d="m 15.00268,218 c 4.478849,0 6.947092,-1.23827 10.806488,-4.32002 2.54273,-1.92087 5.635892,-3.14424 9.193512,-3.11819"
         style="fill:none;stroke:#646464;stroke-width:0.3;stroke-linecap:butt;stroke-linejoin:miter;stroke-miterlimit:4;stroke-dasharray:none;stroke-opacity:1" />
      <path
         sodipodi:nodetypes="cc"
         inkscape:connector-curvature="0"
         id="path5164"
         d="m 15.032916,213.96531 c 9.025071,-1.19885 10.277808,-5.43687 19.969764,-5.43687"
         style="fill:none;stroke:#646464;stroke-width:0.3;stroke-linecap:butt;stroke-linejoin:miter;stroke-miterlimit:4;stroke-dasharray:none;stroke-opacity:1" />
      <path
         inkscape:connector-curvature="0"
         id="path5221"
         d="M 15.00268,218 H 3.0026799"
         style="fill:none;stroke:#646464;stroke-width:0.3;stroke-linecap:butt;stroke-linejoin:miter;stroke-miterlimit:4;stroke-dasharray:none;stroke-opacity:1" />
      <path
         sodipodi:nodetypes="cc"
         inkscape:connector-curvature="0"
         id="path5223"
         d="m 15.032916,213.96531 c -5.1116929,0.62322 -8.0233912,0.8245 -12.0302361,0.93192"
         style="fill:none;stroke:#646464;stroke-width:0.3;stroke-linecap:butt;stroke-linejoin:miter;stroke-miterlimit:4;stroke-dasharray:none;stroke-opacity:1" />
      <path
         sodipodi:nodetypes="ccc"
         inkscape:connector-curvature="0"
         id="path5125-1"
         d="m 54.891312,218.00041 c -4.478849,0 -6.947092,-1.23827 -10.806488,-4.32002 -2.54273,-1.92087 -5.635892,-3.14424 -9.193512,-3.11819"
         style="fill:none;stroke:#646464;stroke-width:0.3;stroke-linecap:butt;stroke-linejoin:miter;stroke-miterlimit:4;stroke-dasharray:none;stroke-opacity:1" />
      <path
         sodipodi:nodetypes="cc"
         inkscape:connector-curvature="0"
         id="path5164-2"
         d="m 54.861076,213.96572 c -9.025071,-1.19885 -10.277808,-5.43687 -19.969764,-5.43687"
         style="fill:none;stroke:#646464;stroke-width:0.3;stroke-linecap:butt;stroke-linejoin:miter;stroke-miterlimit:4;stroke-dasharray:none;stroke-opacity:1" />
      <path
         inkscape:connector-curvature="0"
         id="path5221-9"
         d="m 54.891312,218.00041 h 12"
         style="fill:none;stroke:#646464;stroke-width:0.3;stroke-linecap:butt;stroke-linejoin:miter;stroke-miterlimit:4;stroke-dasharray:none;stroke-opacity:1" />
      <path
         sodipodi:nodetypes="cc"
         inkscape:connector-curvature="0"
         id="path5223-3"
         d="m 54.861076,213.96572 c 5.111692,0.62322 8.023391,0.8245 12.030236,0.93192"
         style="fill:none;stroke:#646464;stroke-width:0.3;stroke-linecap:butt;stroke-linejoin:miter;stroke-miterlimit:4;stroke-dasharray:none;stroke-opacity:1" />
      <path
         sodipodi:nodetypes="ccc"
         inkscape:connector-curvature="0"
         id="path5125-19"
         d="m 15.00268,225.89609 c 4.478849,0 6.947092,1.23827 10.806488,4.32002 2.54273,1.92087 5.635892,3.14424 9.193512,3.11819"
         style="fill:none;stroke:#646464;stroke-width:0.3;stroke-linecap:butt;stroke-linejoin:miter;stroke-miterlimit:4;stroke-dasharray:none;stroke-opacity:1" />
      <path
         sodipodi:nodetypes="cc"
         inkscape:connector-curvature="0"
         id="path5164-4"
         d="m 15.032916,229.93078 c 9.025071,1.19885 10.277808,5.43687 19.969764,5.43687"
         style="fill:none;stroke:#646464;stroke-width:0.3;stroke-linecap:butt;stroke-linejoin:miter;stroke-miterlimit:4;stroke-dasharray:none;stroke-opacity:1" />
      <path
         inkscape:connector-curvature="0"
         id="path5221-7"
         d="M 15.00268,225.89609 H 3.0026799"
         style="fill:none;stroke:#646464;stroke-width:0.3;stroke-linecap:butt;stroke-linejoin:miter;stroke-miterlimit:4;stroke-dasharray:none;stroke-opacity:1" />
      <path
         sodipodi:nodetypes="cc"
         inkscape:connector-curvature="0"
         id="path5223-8"
         d="M 15.032916,229.93078 C 9.9212227,229.30756 7.0095249,229.10628 3.0026799,228.99886"
         style="fill:none;stroke:#646464;stroke-width:0.3;stroke-linecap:butt;stroke-linejoin:miter;stroke-miterlimit:4;stroke-dasharray:none;stroke-opacity:1" />
      <path
         sodipodi:nodetypes="ccc"
         inkscape:connector-curvature="0"
         id="path5125-1-4"
         d="m 54.891314,225.89568 c -4.478851,0 -6.947094,1.23827 -10.806489,4.32002 -2.54273,1.92087 -5.635892,3.14424 -9.193514,3.11819"
         style="fill:none;stroke:#646464;stroke-width:0.3;stroke-linecap:butt;stroke-linejoin:miter;stroke-miterlimit:4;stroke-dasharray:none;stroke-opacity:1" />
      <path
         sodipodi:nodetypes="cc"
         inkscape:connector-curvature="0"
         id="path5164-2-5"
         d="m 54.861077,229.93037 c -9.025072,1.19885 -10.277808,5.43687 -19.969766,5.43687"
         style="fill:none;stroke:#646464;stroke-width:0.3;stroke-linecap:butt;stroke-linejoin:miter;stroke-miterlimit:4;stroke-dasharray:none;stroke-opacity:1" />
      <path
         inkscape:connector-curvature="0"
         id="path5221-9-0"
         d="M 54.891314,225.89568 H 66.891313"
         style="fill:none;stroke:#646464;stroke-width:0.3;stroke-linecap:butt;stroke-linejoin:miter;stroke-miterlimit:4;stroke-dasharray:none;stroke-opacity:1" />
      <path
         sodipodi:nodetypes="cc"
         inkscape:connector-curvature="0"
         id="path5223-3-3"
         d="m 54.861077,229.93037 c 5.111692,-0.62322 8.023392,-0.8245 12.030236,-0.93192"
         style="fill:none;stroke:#646464;stroke-width:0.3;stroke-linecap:butt;stroke-linejoin:miter;stroke-miterlimit:4;stroke-dasharray:none;stroke-opacity:1" />
    </g>
    <g
       id="g1852">
      <circle
         r="9.9494238"
         cy="221.94827"
         cx="105.05029"
         id="path5075-61"
         style="opacity:0.98999999;fill:#ffffff;fill-opacity:1;stroke:#000000;stroke-width:0.3;stroke-miterlimit:4;stroke-dasharray:none;stroke-opacity:1" />
      <path
         inkscape:connector-curvature="0"
         id="path5108-0"
         d="M 73.050287,221.89711 H 95.050284"
         style="fill:none;stroke:#646464;stroke-width:0.3;stroke-linecap:butt;stroke-linejoin:miter;stroke-miterlimit:4;stroke-dasharray:none;stroke-opacity:1" />
      <path
         sodipodi:nodetypes="ccc"
         inkscape:connector-curvature="0"
         id="path5125-3"
         d="m 85.052964,218.0294 c 4.47885,0 6.94709,-1.23827 10.80649,-4.32002 2.54273,-1.92087 5.635886,-3.14424 9.193506,-3.11819"
         style="fill:none;stroke:#646464;stroke-width:0.3;stroke-linecap:butt;stroke-linejoin:miter;stroke-miterlimit:4;stroke-dasharray:none;stroke-opacity:1" />
      <path
         inkscape:connector-curvature="0"
         id="path5221-6"
         d="M 85.052964,218.0294 H 73.052967"
         style="fill:none;stroke:#646464;stroke-width:0.3;stroke-linecap:butt;stroke-linejoin:miter;stroke-miterlimit:4;stroke-dasharray:none;stroke-opacity:1" />
      <path
         sodipodi:nodetypes="ccc"
         inkscape:connector-curvature="0"
         id="path5125-19-5"
         d="m 85.052964,225.92549 c 4.47885,0 6.94709,1.23827 10.80649,4.32002 2.54273,1.92087 5.635886,3.14424 9.193506,3.11819"
         style="fill:none;stroke:#646464;stroke-width:0.3;stroke-linecap:butt;stroke-linejoin:miter;stroke-miterlimit:4;stroke-dasharray:none;stroke-opacity:1" />
      <path
         inkscape:connector-curvature="0"
         id="path5221-7-9"
         d="M 85.052964,225.92549 H 73.052967"
         style="fill:none;stroke:#646464;stroke-width:0.3;stroke-linecap:butt;stroke-linejoin:miter;stroke-miterlimit:4;stroke-dasharray:none;stroke-opacity:1" />
      <path
         sodipodi:nodetypes="cscc"
         inkscape:connector-curvature="0"
         id="path931"
         d="m 105.0599,210.59119 c 0,0 7.94963,-0.29293 13.64283,2.30492 8.13384,3.71153 3.15469,8.03642 3.15469,8.03642 -2.13875,1.94819 -5.53479,-0.0261 -3.3687,-2.925"
         style="fill:none;stroke:#646464;stroke-width:0.3;stroke-linecap:butt;stroke-linejoin:miter;stroke-opacity:1;stroke-miterlimit:4;stroke-dasharray:none" />
      <path
         sodipodi:nodetypes="cscc"
         inkscape:connector-curvature="0"
         id="path931-3"
         d="m 105.04998,233.35647 c 0,0 10.4298,0.46282 17.66373,-2.07861 7.23392,-2.54144 4.1506,-7.31195 4.1506,-7.31195 -1.43875,-2.27353 -5.78334,-3.11473 -5.23821,2.6018"
         style="fill:none;stroke:#646464;stroke-width:0.3;stroke-linecap:butt;stroke-linejoin:miter;stroke-opacity:1;stroke-miterlimit:4;stroke-dasharray:none" />
      <path
         sodipodi:nodetypes="cscc"
         inkscape:connector-curvature="0"
         id="path931-6"
         d="m 116.94381,210.7436 c 0,0 6.96742,-1.08877 12.18929,1.49726 5.46669,2.70726 2.27183,7.29349 2.27183,7.29349 -1.84475,3.03021 -7.29986,3.04412 -4.4711,-1.33332"
         style="fill:none;stroke:#646464;stroke-width:0.3;stroke-linecap:butt;stroke-linejoin:miter;stroke-opacity:1;stroke-miterlimit:4;stroke-dasharray:none" />
      <path
         sodipodi:nodetypes="cscc"
         inkscape:connector-curvature="0"
         id="path931-3-7"
         d="m 119.48585,233.17271 c 0,0 6.6273,0.64928 12.60023,-1.82633 5.97294,-2.4756 3.8355,-6.66123 3.8355,-6.66123 -1.59626,-3.11634 -7.22872,-2.4854 -4.91556,1.94766"
         style="fill:none;stroke:#646464;stroke-width:0.3;stroke-linecap:butt;stroke-linejoin:miter;stroke-opacity:1;stroke-miterlimit:4;stroke-dasharray:none" />
    </g>
    <g
       id="g1864">
      <circle
         r="9.9494238"
         cy="264.14893"
         cx="35.000004"
         id="path5075-61-2"
         style="opacity:0.98999999;fill:#ffffff;fill-opacity:1;stroke:#000000;stroke-width:0.3;stroke-miterlimit:4;stroke-dasharray:none;stroke-opacity:1" />
      <path
         inkscape:connector-curvature="0"
         id="path5108-0-0"
         d="M 3,264.09778 H 24.999997"
         style="fill:none;stroke:#646464;stroke-width:0.3;stroke-linecap:butt;stroke-linejoin:miter;stroke-miterlimit:4;stroke-dasharray:none;stroke-opacity:1" />
      <path
         sodipodi:nodetypes="ccc"
         inkscape:connector-curvature="0"
         id="path5125-3-2"
         d="m 15.002677,260.23007 c 4.47885,0 6.94709,-1.23827 10.80649,-4.32002 2.54273,-1.92087 5.635886,-3.14424 9.193507,-3.11819"
         style="fill:none;stroke:#646464;stroke-width:0.3;stroke-linecap:butt;stroke-linejoin:miter;stroke-miterlimit:4;stroke-dasharray:none;stroke-opacity:1" />
      <path
         inkscape:connector-curvature="0"
         id="path5221-6-3"
         d="M 15.002677,260.23007 H 3.00268"
         style="fill:none;stroke:#646464;stroke-width:0.3;stroke-linecap:butt;stroke-linejoin:miter;stroke-miterlimit:4;stroke-dasharray:none;stroke-opacity:1" />
      <path
         sodipodi:nodetypes="ccc"
         inkscape:connector-curvature="0"
         id="path5125-19-5-7"
         d="m 15.002677,268.12616 c 4.47885,0 6.94709,1.23827 10.80649,4.32002 2.54273,1.92087 5.635886,3.14424 9.193507,3.11819"
         style="fill:none;stroke:#646464;stroke-width:0.3;stroke-linecap:butt;stroke-linejoin:miter;stroke-miterlimit:4;stroke-dasharray:none;stroke-opacity:1" />
      <path
         inkscape:connector-curvature="0"
         id="path5221-7-9-5"
         d="M 15.002677,268.12616 H 3.00268"
         style="fill:none;stroke:#646464;stroke-width:0.3;stroke-linecap:butt;stroke-linejoin:miter;stroke-miterlimit:4;stroke-dasharray:none;stroke-opacity:1" />
      <path
         inkscape:connector-curvature="0"
         id="path1103"
         d="m 35.002673,252.79186 c 0.04025,-0.0145 0.07959,-0.0318 0.120764,-0.0434 0.02606,-0.007 0.139981,0 0.165365,0 0.01103,0 0.02204,0 0.03307,0 0.01103,0 0.0232,-0.005 0.03307,0 0.01394,0.007 0.01913,0.0261 0.03307,0.0331 0.01206,0.006 0.14631,0 0.165365,0 0.05512,0 0.110244,0 0.165365,0 0.02204,0 0.04453,0.004 0.06614,0 0.359699,-0.1199 -0.08715,0.0174 0.165365,-0.0331 0.03418,-0.007 0.06504,-0.0262 0.09922,-0.0331 0.02162,-0.004 0.04476,0.005 0.06615,0 0.02392,-0.006 0.04223,-0.0271 0.06614,-0.0331 0.02138,-0.005 0.0441,0 0.06615,0 0.05512,0 0.110244,0 0.165365,0 0.03307,0 0.06648,0.005 0.09922,0 0.045,-0.006 0.08712,-0.0281 0.132291,-0.0331 0.109569,-0.0122 0.221033,0.011 0.330729,0 0.05594,-0.006 0.109432,-0.0275 0.165365,-0.0331 0.05485,-0.005 0.11058,0.006 0.165365,0 0.04518,-0.005 0.08719,-0.0274 0.132291,-0.0331 0.04376,-0.005 0.08819,0 0.132292,0 0.08819,0 0.17639,0 0.264583,0 0.06615,0 0.132292,0 0.198438,0 0.02204,0 0.04476,-0.005 0.06615,0 0.02392,0.006 0.04276,0.0253 0.06614,0.0331 0.01045,0.004 0.02262,-0.003 0.03307,0 0.06918,0.0231 0.130681,0.0721 0.198438,0.0992 0.03237,0.0129 0.06615,0.022 0.09922,0.0331 0.03307,0.011 0.06483,0.0273 0.09922,0.0331 0.03262,0.005 0.0666,-0.005 0.09922,0 0.03439,0.006 0.06471,0.0281 0.09922,0.0331 0.04365,0.006 0.08864,-0.006 0.132291,0 0.03451,0.005 0.06483,0.0273 0.09922,0.0331 0.03262,0.005 0.06615,0 0.09922,0 0.03307,0 0.132292,0 0.165365,0 0.07717,0 0.154339,0 0.23151,0 0.02204,0 0.04476,-0.005 0.06615,0 0.18738,0.0937 -0.0493,-0.0123 0.132291,0.0331 0.02392,0.006 0.04197,0.0282 0.06615,0.0331 0.03243,0.006 0.06679,-0.006 0.09922,0 0.02418,0.005 0.04326,0.0239 0.06615,0.0331 0.06474,0.0259 0.132291,0.0441 0.198437,0.0662 0.03307,0.011 0.06471,0.0281 0.09922,0.0331 0.04365,0.006 0.08864,-0.006 0.132292,0 0.09608,0.0137 0.168849,0.0833 0.264583,0.0992 0.03262,0.005 0.06679,-0.006 0.09922,0 0.02418,0.005 0.04326,0.0239 0.06615,0.0331 0.06474,0.0259 0.134352,0.0387 0.198437,0.0661 0.04532,0.0194 0.08613,0.0488 0.132292,0.0661 0.109934,0.0412 0.216418,0.0376 0.330729,0.0661 0.06764,0.0169 0.129524,0.0555 0.198437,0.0661 0.07627,0.0117 0.154538,-0.006 0.231511,0 0.07776,0.006 0.153786,0.0271 0.23151,0.0331 0.06595,0.005 0.132522,-0.006 0.198438,0 0.06683,0.006 0.131654,0.027 0.198437,0.0331 0.0549,0.005 0.11067,-0.007 0.165365,0 0.142248,0.0178 0.06414,0.0455 0.198437,0.0992 0.02048,0.008 0.04476,-0.005 0.06615,0 0.02392,0.006 0.04223,0.0271 0.06615,0.0331 0.130112,0.0325 0.26869,0.0267 0.396875,0.0661 0.08025,0.0247 0.150058,0.0789 0.23151,0.0992 0.09685,0.0242 0.198438,0.022 0.297657,0.0331 0.09922,0.011 0.198437,0.022 0.297656,0.0331 0.396269,0.044 0.197826,0.0331 0.595312,0.0331 0.07717,0 0.154567,0.006 0.231511,0 0.06686,-0.005 0.131577,-0.0279 0.198437,-0.0331 0.07694,-0.006 0.154657,0.007 0.231511,0 0.04527,-0.004 0.08745,-0.0256 0.132291,-0.0331 0.0435,-0.007 0.08819,0 0.132292,0 0.07717,0 0.154339,0 0.231511,0 0.05512,0 0.110243,0 0.165364,0 0.06615,0 0.133191,-0.0109 0.198438,0 0.140274,0.0234 0.300302,0.12215 0.429947,0.16537 0.573469,0.14336 -0.02902,-0.0222 0.496094,0.16536 0.124169,0.0444 0.306867,0.0763 0.429948,0.13229 0.05852,0.0266 0.107868,0.0705 0.165365,0.0992 0.153924,0.077 0.0696,-0.0226 0.264583,0.0992 0.03966,0.0248 0.05861,0.076 0.09922,0.0992 0.346223,0.19784 -0.08852,-0.153 0.264583,0.0992 0.03806,0.0272 0.06116,0.072 0.09922,0.0992 0.04012,0.0286 0.09049,0.04 0.132292,0.0661 0.18929,0.11831 0.06825,0.0721 0.23151,0.16537 0.04281,0.0244 0.09049,0.04 0.132292,0.0661 0.252944,0.18971 0.01035,0.0201 0.264583,0.16537 0.03451,0.0197 0.0629,0.05 0.09922,0.0661 0.06371,0.0283 0.136075,0.035 0.198437,0.0661 0.06546,0.0327 0.08556,0.11863 0.132292,0.16536 0.02811,0.0281 0.06818,0.0413 0.09922,0.0661 0.0487,0.039 0.0882,0.0882 0.132291,0.13229 0.02204,0.022 0.0402,0.0488 0.06615,0.0661 0.04102,0.0273 0.09127,0.0388 0.132292,0.0661 0.02595,0.0173 0.0418,0.0467 0.06615,0.0662 0.03104,0.0248 0.06818,0.0413 0.09922,0.0661 0.06125,0.049 0.101058,0.11943 0.165365,0.16537 0.04012,0.0287 0.09285,0.0366 0.132292,0.0661 0.04989,0.0374 0.0824,0.0949 0.132291,0.1323 0.323483,0.24261 -0.03421,-0.0891 0.231511,0.13229 0.05989,0.0499 0.110244,0.11024 0.165364,0.16536 0.0441,0.0441 0.0882,0.0882 0.132292,0.13229 0.02204,0.022 0.04667,0.0418 0.06615,0.0661 0.02484,0.031 0.04131,0.0682 0.06615,0.0992 0.03896,0.0487 0.0977,0.0804 0.132291,0.13229 0.02735,0.041 0.03749,0.0922 0.06615,0.13229 0.02719,0.0381 0.06928,0.0633 0.09922,0.0992 0.02545,0.0305 0.0441,0.0661 0.06615,0.0992 0.0441,0.0661 0.09285,0.12942 0.132291,0.19844 0.02447,0.0428 0.0388,0.0913 0.06615,0.13229 0.03459,0.0519 0.104402,0.0765 0.132292,0.13229 0.0099,0.0197 0,0.0441 0,0.0661 0,0.022 0,0.0441 0,0.0661 0,0.022 0,0.0441 0,0.0661 0,0.022 0.0082,0.0457 0,0.0661 -0.01476,0.0369 -0.04569,0.0651 -0.06615,0.0992 -0.0365,0.0608 -0.04248,0.0944 -0.06615,0.16537 -0.02355,0.0707 -0.05576,0.15883 -0.06615,0.23151 -0.0047,0.0327 0,0.0661 0,0.0992 0,0.0331 -0.0047,0.0665 0,0.0992 0.0064,0.045 0.02665,0.0873 0.03307,0.13229 0.0047,0.0327 -0.01045,0.0678 0,0.0992 0.01257,0.0377 0.05049,0.0627 0.06615,0.0992 0.01791,0.0418 0.01516,0.0905 0.03307,0.1323 0.01566,0.0365 0.04643,0.0647 0.06615,0.0992 0.02447,0.0428 0.0441,0.0882 0.06615,0.1323 0.01103,0.022 0.01828,0.0464 0.03307,0.0661 0.01871,0.025 0.04744,0.0412 0.06614,0.0662 0.01479,0.0197 0.01828,0.0464 0.03307,0.0661 0.01871,0.0249 0.04744,0.0412 0.06615,0.0661 0.02958,0.0394 0.03657,0.0928 0.06615,0.13229 0.01871,0.0249 0.04744,0.0412 0.06615,0.0661 0.01479,0.0197 0.02204,0.0441 0.03307,0.0661 0.01103,0.022 0.02709,0.0422 0.03307,0.0661 0.0053,0.0214 -0.0053,0.0448 0,0.0661 0.006,0.0239 0.02709,0.0422 0.03307,0.0661 0.0053,0.0214 0,0.0441 0,0.0661 0,0.0551 -0.009,0.11099 0,0.16536 0.0057,0.0344 0.02875,0.0646 0.03307,0.0992 0.0068,0.0547 -0.01082,0.11131 0,0.16536 0.01164,0.0582 0.05052,0.10809 0.06614,0.16537 0.01765,0.0647 0.0168,0.13338 0.03307,0.19844 0.08358,0.33431 0.06615,0.0626 0.06615,0.3638 0,0.0661 0,0.13229 0,0.19844 0,0.0331 0.01228,0.0685 0,0.0992 -0.01159,0.029 -0.04744,0.0412 -0.06615,0.0661 -0.01479,0.0197 -0.01564,0.0487 -0.03307,0.0661 -0.01744,0.0174 -0.04872,0.0156 -0.06614,0.0331 -0.04028,0.0403 -0.01548,0.0739 -0.06615,0.0992 -0.0099,0.005 -0.0232,-0.005 -0.03307,0 -0.01394,0.007 -0.01828,0.0281 -0.03307,0.0331 -0.02093,0.007 -0.04642,-0.01 -0.06615,0 -0.02789,0.0139 -0.04409,0.0441 -0.06615,0.0661 -0.02204,0.022 -0.04409,0.0441 -0.06615,0.0661 -0.07671,0.0767 -0.135223,0.14342 -0.23151,0.19844 -0.08068,0.0461 -0.212606,0.10394 -0.297656,0.13229 -0.07614,0.0254 -0.155927,0.0391 -0.231511,0.0661 -0.2946,0.10521 -0.160988,0.10064 -0.463021,0.16536 -0.07622,0.0163 -0.155413,0.0162 -0.23151,0.0331 -0.02405,0.005 -0.04197,0.0282 -0.06615,0.0331 -0.03243,0.006 -0.06964,-0.0148 -0.09922,0 -0.02204,0.011 -0.01564,0.0487 -0.03307,0.0661 -0.0028,0.003 -0.0828,0.005 -0.09922,0 -0.05632,-0.0188 -0.109572,-0.0458 -0.165365,-0.0661 -0.168222,-0.0612 -0.314978,-0.10513 -0.496094,-0.13229 -0.120419,-0.0181 -0.243101,-0.017 -0.363802,-0.0331 -0.210195,-0.028 -0.419084,-0.0651 -0.628385,-0.0992 -1.148686,-0.18699 -0.412157,-0.0627 -1.289844,-0.23151 -0.121036,-0.0233 -0.243898,-0.0376 -0.363802,-0.0661 -0.313513,-0.0747 -0.264649,-0.10584 -0.529167,-0.13229 -0.06001,-0.006 -0.132175,0.0333 -0.165364,-0.0331 -0.0049,-0.01 0,-0.022 0,-0.0331 0,-0.011 0,-0.022 0,-0.0331 0,-0.0772 0.0096,-0.15494 0,-0.23151 -0.0056,-0.0451 -0.02204,-0.0882 -0.03307,-0.13229 -0.01103,-0.0441 -0.02204,-0.0882 -0.03307,-0.1323 -0.01103,-0.0441 -0.01516,-0.0905 -0.03307,-0.13229 -0.01566,-0.0365 -0.05523,-0.061 -0.06615,-0.0992 -0.01212,-0.0424 0,-0.0882 0,-0.13229 0,-0.0331 0,-0.0661 0,-0.0992 0,-0.0331 -0.0091,-0.0674 0,-0.0992 0.01355,-0.0474 0.04673,-0.087 0.06615,-0.13229 0.01373,-0.032 0.01749,-0.068 0.03307,-0.0992 0.03555,-0.0711 0.09139,-0.13026 0.132292,-0.19843 0.01267,-0.0211 0.01828,-0.0464 0.03307,-0.0661 0.01871,-0.025 0.0522,-0.0383 0.06614,-0.0661 0.0099,-0.0197 -0.0099,-0.0464 0,-0.0661 0.01394,-0.0279 0.04744,-0.0412 0.06615,-0.0661 0.03324,-0.0443 0.04709,-0.11772 0.06615,-0.16536 0.01831,-0.0458 0.04784,-0.0865 0.06615,-0.13229 0.01294,-0.0324 0.02013,-0.0668 0.03307,-0.0992 0.0092,-0.0229 0.02824,-0.042 0.03307,-0.0661 0.0065,-0.0324 0,-0.0661 0,-0.0992 0,-0.0331 0,-0.0661 0,-0.0992 0,-0.0331 0.0047,-0.0665 0,-0.0992 -0.0177,-0.12391 -0.05507,-0.17626 -0.09922,-0.29766 -0.02384,-0.0655 -0.04232,-0.13291 -0.06615,-0.19844 -0.02029,-0.0558 -0.04203,-0.11111 -0.06615,-0.16536 -0.02003,-0.0451 -0.05419,-0.0845 -0.06614,-0.13229 -5.3e-4,-0.002 -0.007,-0.23676 0,-0.26459 0.02,-0.0801 0.0498,-0.0664 0.09922,-0.13229 0.01479,-0.0197 0.01828,-0.0464 0.03307,-0.0661 0.01871,-0.0249 0.04744,-0.0412 0.06615,-0.0661 0.01479,-0.0197 0.01828,-0.0464 0.03307,-0.0661 0.01871,-0.0249 0.0441,-0.0441 0.06615,-0.0661 0.02204,-0.022 0.0402,-0.0489 0.06615,-0.0661 0.09733,-0.0649 0.223162,-0.0964 0.330729,-0.13229 0.262054,-0.0873 0.129662,-0.0547 0.396875,-0.0992 0.06615,-0.011 0.131897,-0.0248 0.198437,-0.0331 0.02188,-0.003 0.0478,0.0122 0.06615,0 0.0205,-0.0137 0.01257,-0.0525 0.03307,-0.0661 0.01834,-0.0122 0.0441,0 0.06615,0 0.10369,0 0.195564,0.0559 0.297656,0.0661 0.131636,0.0132 0.265129,-0.012 0.396875,0 0.05598,0.005 0.109495,0.0269 0.165365,0.0331 0.07032,0.008 0.141277,-0.0241 0.198437,0.0331 0.0078,0.008 -0.02204,0 -0.03307,0 -0.01103,0 -0.03307,0.011 -0.03307,0 0,-0.011 0.02204,0 0.03307,0 0.02204,0 0.0441,0 0.06615,0 0.05512,0 0.110244,0 0.165365,0"
         style="fill:none;stroke:#646464;stroke-width:0.3;stroke-linecap:butt;stroke-linejoin:miter;stroke-opacity:1;stroke-miterlimit:4;stroke-dasharray:none" />
      <path
         inkscape:connector-curvature="0"
         id="path1105"
         d="m 53.545051,254.89818 c 0.01103,-0.0441 0.01871,-0.0892 0.03307,-0.1323 0.0078,-0.0234 0.0271,-0.0422 0.03307,-0.0661 0.0053,-0.0214 0,-0.0441 0,-0.0661 0,-0.022 0,-0.0441 0,-0.0661 0,-0.0344 -0.0065,-0.17242 0,-0.19844 0.006,-0.0239 0.02204,-0.0441 0.03307,-0.0661 0.01103,-0.022 0.01828,-0.0464 0.03307,-0.0661 0.01871,-0.0249 0.04744,-0.0412 0.06615,-0.0661 0.01479,-0.0197 0.01828,-0.0464 0.03307,-0.0661 0.01871,-0.025 0.0441,-0.0441 0.06615,-0.0662 0.07243,-0.0724 0.06802,-0.0767 0.165364,-0.13229 0.136258,-0.0779 0.168106,-0.0781 0.330729,-0.13229 0.06615,-0.022 0.131398,-0.047 0.198438,-0.0661 0.08741,-0.025 0.177813,-0.039 0.264583,-0.0661 0.354955,-0.11092 0.177811,-0.10466 0.56224,-0.16536 0.109437,-0.0173 0.222313,-0.0102 0.330729,-0.0331 0.102343,-0.0215 0.194228,-0.0837 0.297656,-0.0992 0.119925,-0.018 0.242536,0 0.363802,0 0.110244,0 0.220488,0 0.330729,0 0.143317,0 0.286634,0 0.429948,0 0.05512,0 0.110244,0 0.165365,0 0.03307,0 0.06851,-0.0123 0.09922,0 0.02895,0.0116 0.0418,0.0467 0.06615,0.0661 0.157972,0.12638 0.03542,0.0177 0.198437,0.0992 0.03555,0.0178 0.0629,0.05 0.09922,0.0661 0.06371,0.0283 0.134077,0.0393 0.198437,0.0661 0.06827,0.0284 0.130173,0.0708 0.198438,0.0992 0.06436,0.0268 0.137229,0.0328 0.198437,0.0661 0.06197,0.0338 0.108892,0.0899 0.165365,0.13229 0.0016,0.001 0.4626,0.33037 0.463021,0.33073 0.08286,0.071 0.154342,0.15434 0.23151,0.23151 0.09922,0.0992 0.195646,0.20131 0.297656,0.29766 0.239652,0.22633 0.336749,0.29836 0.595313,0.49609 0.08757,0.067 0.167312,0.14656 0.264583,0.19844 0.07082,0.0378 0.156602,0.0373 0.231511,0.0661 0.06902,0.0266 0.132291,0.0661 0.198437,0.0992 0.06615,0.0331 0.133792,0.0633 0.198438,0.0992 0.03475,0.0193 0.06367,0.0484 0.09922,0.0661 0.03118,0.0156 0.06804,0.0175 0.09922,0.0331 0.06798,0.034 0.0052,0.0713 0.06615,0.13229 0.02466,0.0247 0.07021,0.0137 0.09922,0.0331 0.306125,0.20409 -0.07868,-0.005 0.165364,0.19844 0.0037,0.003 0.257321,0.12745 0.264584,0.13229 0.188745,0.12583 0.137816,0.12251 0.297656,0.26459 0.05276,0.0469 0.110244,0.0882 0.165364,0.13229 0.06615,0.0661 0.129482,0.13523 0.198438,0.19844 0.06347,0.0582 0.146777,0.0965 0.198437,0.16536 0.08617,0.1149 0.118849,0.33278 0.165365,0.46302 0.02824,0.0791 0.08275,0.14918 0.09922,0.23151 0.0013,0.007 -0.0013,0.51733 0,0.52917 0.02381,0.2023 0.07613,0.3507 0.165364,0.52917 0.279887,0.55977 0.0158,0.0819 0.396875,0.46302 0.06706,0.067 0.104109,0.15911 0.165365,0.23151 0.06042,0.0714 0.132292,0.13229 0.198437,0.19843 0.0441,0.0441 0.08494,0.0917 0.132292,0.1323 0.115755,0.0992 0.09371,0.022 0.165365,0.16536 0.01558,0.0312 0.02463,0.0654 0.03307,0.0992 0.0027,0.0107 0.0061,0.0239 0,0.0331 -0.0173,0.026 -0.0441,0.0441 -0.06615,0.0661 -0.02204,0.022 -0.0441,0.0441 -0.06615,0.0661 -0.06615,0.0661 -0.132292,0.1323 -0.198438,0.19844 -0.03307,0.0331 -0.07443,0.0596 -0.09922,0.0992 -0.03146,0.0503 -0.03321,0.11597 -0.06615,0.16536 -0.109278,0.16392 -0.130281,0.0782 -0.198438,0.23151 -0.02831,0.0637 -0.03783,0.13473 -0.06615,0.19844 -0.01614,0.0363 -0.04837,0.0637 -0.06614,0.0992 -0.02655,0.0531 -0.03959,0.11227 -0.06615,0.16537 -0.06786,0.13572 -0.05026,0.0628 -0.132292,0.16536 -0.02484,0.031 -0.03804,0.0711 -0.06615,0.0992 -0.07028,0.0703 -0.17931,0.0944 -0.264583,0.13229 -0.04505,0.02 -0.08724,0.0461 -0.132292,0.0661 -0.05425,0.0241 -0.112262,0.0396 -0.165364,0.0661 -0.05749,0.0288 -0.107868,0.0705 -0.165365,0.0992 -0.0531,0.0265 -0.113818,0.0367 -0.165364,0.0661 -0.02707,0.0155 -0.03941,0.0501 -0.06615,0.0661 -0.119899,0.0719 -0.06451,0.0129 -0.165365,0.0331 -0.03418,0.007 -0.06483,0.0273 -0.09922,0.0331 -0.08124,0.0136 -0.192886,-0.0165 -0.264583,-0.0331 -0.391567,-0.0904 -0.183433,-0.0292 -0.595312,-0.26459 -1.298287,-0.74188 0.647065,0.42035 -0.727605,-0.49609 -0.850908,-0.56727 0.134226,0.19984 -0.595312,-0.33073 -0.03783,-0.0275 -0.06615,-0.0661 -0.09922,-0.0992 -0.03307,-0.0331 -0.07115,-0.0618 -0.09922,-0.0992 -0.03857,-0.0514 -0.06065,-0.11394 -0.09922,-0.16536 -0.02806,-0.0374 -0.06615,-0.0662 -0.09922,-0.0992 -0.03307,-0.0331 -0.06329,-0.0693 -0.09922,-0.0992 -0.03054,-0.0255 -0.07111,-0.038 -0.09922,-0.0662 -0.05621,-0.0562 -0.08263,-0.13636 -0.132291,-0.19843 -0.01947,-0.0244 -0.0441,-0.0441 -0.06615,-0.0661 -0.03307,-0.0331 -0.07,-0.0627 -0.09922,-0.0992 -0.0154,-0.0192 -0.01828,-0.0464 -0.03307,-0.0661 -0.01871,-0.0249 -0.0501,-0.0394 -0.06615,-0.0661 -5.29e-4,-10e-4 -0.06443,-0.19415 -0.06615,-0.19844 -0.03528,-0.0882 -0.04421,-0.0557 -0.06615,-0.16536 -0.0043,-0.0216 0.0099,-0.0464 0,-0.0662 -0.01394,-0.0279 -0.04744,-0.0412 -0.06615,-0.0661 -0.01479,-0.0197 -0.01828,-0.0464 -0.03307,-0.0661 -0.04074,-0.0543 -0.10841,-0.0997 -0.165365,-0.13229 -0.210743,-0.12042 -0.425471,-0.1376 -0.661458,-0.16537 -0.09915,-0.0117 -0.198019,-0.0268 -0.297656,-0.0331 -0.07702,-0.005 -0.15434,0 -0.231511,0 -0.08819,0 -0.176387,0 -0.264583,0 -0.07717,0 -0.154339,0 -0.23151,0 -0.0441,0 -0.08879,0.007 -0.132292,0 -0.05666,-0.009 -0.146087,-0.10016 -0.165365,-0.13229 -0.01135,-0.0189 0,-0.0441 0,-0.0661 0,-0.022 0,-0.0441 0,-0.0661 0,-0.0441 -0.0062,-0.0886 0,-0.13229 0.0097,-0.0681 0.07254,-0.17815 0.09922,-0.23151 0.01103,-0.022 0.02527,-0.0428 0.03307,-0.0661 0.01437,-0.0431 0.02058,-0.0886 0.03307,-0.13229 0.0096,-0.0335 0.02734,-0.0648 0.03307,-0.0992 0.0054,-0.0326 0,-0.0661 0,-0.0992 0,-0.022 0.0053,-0.0448 0,-0.0661 -0.02,-0.0801 -0.0498,-0.0664 -0.09922,-0.1323 -0.04293,-0.0572 -0.03307,-0.0671 -0.03307,-0.13229 0,-0.022 -0.0043,-0.0445 0,-0.0661 0.02146,-0.10734 0.02762,-0.0938 0.09922,-0.16537 0.02204,-0.022 0.0441,-0.0441 0.06615,-0.0661 0.02204,-0.022 0.0441,-0.0441 0.06615,-0.0661 0.02204,-0.022 0.0412,-0.0474 0.06615,-0.0661 0.01971,-0.0148 0.04564,-0.0194 0.06614,-0.0331 0.01297,-0.009 0.02011,-0.0244 0.03307,-0.0331 0.0205,-0.0137 0.0441,-0.022 0.06615,-0.0331 0.02204,-0.011 0.04223,-0.0271 0.06615,-0.0331 0.02088,-0.005 0.223086,-0.003 0.23151,0 0.03771,0.0126 0.06066,0.0565 0.09922,0.0661 0.05348,0.0134 0.11058,-0.006 0.165365,0 0.04518,0.005 0.08792,0.0232 0.132291,0.0331 0.05488,0.0122 0.109585,0.0261 0.165365,0.0331 0.03282,0.004 0.06615,0 0.09922,0 0.05512,0 0.110244,0 0.165364,0 0.0441,0 0.08864,0.006 0.132292,0 0.0804,-0.0115 0.15998,-0.0635 0.23151,-0.0992 0.0441,-0.022 0.09127,-0.0388 0.132292,-0.0661 0.01296,-0.009 0.01828,-0.0281 0.03307,-0.0331 0.02093,-0.007 0.04643,0.01 0.06615,0 0.0099,-0.005 -0.0099,-0.0281 0,-0.0331 0.0454,-0.0227 0.09718,0.0155 0.132291,0.0331 0.138086,0.069 -0.007,-0.0122 0.132292,0.0992 0.07084,0.0567 0.151321,0.0922 0.231511,0.13229 0.02204,0.011 0.04223,0.0271 0.06614,0.0331 0.02138,0.005 0.0441,0 0.06615,0 0.02204,0 0.0441,0 0.06615,0 0.01103,0 0.02204,0 0.03307,0 0.01103,0 0.02527,-0.008 0.03307,0 0.0078,0.008 0.01103,0.0331 0,0.0331 -0.01103,0 0,-0.022 0,-0.0331"
         style="fill:none;stroke:#646464;stroke-width:0.3;stroke-linecap:butt;stroke-linejoin:miter;stroke-opacity:1;stroke-miterlimit:4;stroke-dasharray:none" />
      <path
         inkscape:connector-curvature="0"
         id="path1107"
         d="m 35.002673,275.56437 c 0.09538,0.0345 0.188815,0.075 0.286129,0.1036 0.02114,0.006 0.0441,0 0.06615,0 0.110244,0 0.220867,-0.009 0.33073,0 0.06683,0.006 0.132053,0.0236 0.198437,0.0331 0.08799,0.0126 0.17639,0.022 0.264583,0.0331 0.08819,0.011 0.175901,0.0272 0.264584,0.0331 0.077,0.005 0.154511,-0.005 0.23151,0 0.08868,0.006 0.1759,0.0272 0.264584,0.0331 0.077,0.005 0.154339,0 0.23151,0 0.06615,0 0.132292,0 0.198437,0 0.0441,0 0.08819,0 0.132292,0 0.03307,0 0.0666,0.005 0.09922,0 0.03439,-0.006 0.06685,-0.0201 0.09922,-0.0331 0.02289,-0.009 0.04169,-0.03 0.06614,-0.0331 0.06564,-0.008 0.132292,0 0.198438,0 0.03307,0 0.06679,0.006 0.09922,0 0.0787,-0.0157 0.152344,-0.053 0.23151,-0.0661 0.05437,-0.009 0.110244,0 0.165365,0 0.08819,0 0.176389,0 0.264583,0 0.857827,0 -0.27818,0.0125 0.496094,-0.0331 0.337624,-0.0199 0.325448,0.0309 0.661458,-0.0331 0.123476,-0.0235 0.241525,-0.0701 0.363802,-0.0992 0.109368,-0.026 0.22166,-0.0389 0.330729,-0.0661 0.111662,-0.0279 0.217665,-0.0777 0.330729,-0.0992 0.119619,-0.0228 0.243258,-0.0159 0.363803,-0.0331 0.401248,-0.0573 0.243295,-0.0789 0.628385,-0.0992 0.11009,-0.006 0.220485,0 0.330729,0 0.09922,0 0.198438,0 0.297656,0 0.09922,0 0.198983,0.0104 0.297657,0 0.11181,-0.0118 0.218921,-0.0544 0.330729,-0.0661 0.09867,-0.0104 0.198591,0.005 0.297656,0 0.343739,-0.0191 0.273706,-0.0432 0.628385,-0.0992 0.09861,-0.0156 0.199187,-0.0167 0.297657,-0.0331 0.219464,-0.0366 0.448045,-0.10969 0.661458,-0.16537 0.395748,-0.10323 0.793843,-0.19845 1.190625,-0.29765 0.132292,-0.0331 0.263626,-0.0703 0.396875,-0.0992 0.282702,-0.0615 0.468992,-0.0865 0.760677,-0.0992 0.121153,-0.005 0.243554,-0.0157 0.363802,0 0.135218,0.0177 0.264277,0.0674 0.396875,0.0992 0.143021,0.0343 0.286523,0.0666 0.429948,0.0992 0.09911,0.0225 0.19726,0.0503 0.297656,0.0661 0.109437,0.0173 0.220107,0.0269 0.330729,0.0331 0.111207,0.006 0.281499,0.0182 0.396875,-0.0331 0.110538,-0.0491 0.188987,-0.10772 0.264584,-0.19843 0.05089,-0.0611 0.0814,-0.13737 0.132291,-0.19844 0.02994,-0.0359 0.07203,-0.0612 0.09922,-0.0992 0.02866,-0.0401 0.0388,-0.0913 0.06615,-0.13229 0.04563,-0.0684 0.102182,-0.0817 0.165365,-0.13229 0.02434,-0.0195 0.0418,-0.0467 0.06614,-0.0661 0.0955,-0.0764 0.09438,-0.0436 0.165365,-0.13229 0.02484,-0.031 0.04132,-0.0682 0.06615,-0.0992 0.01947,-0.0243 0.0501,-0.0394 0.06615,-0.0662 0.02389,-0.0398 0.05533,-0.19907 0.06615,-0.23151 0.01879,-0.0563 0.04909,-0.1085 0.06614,-0.16536 0.0163,-0.0543 0.05954,-0.32083 0.06615,-0.3638 0.01185,-0.0771 0.01556,-0.15555 0.03307,-0.23151 0.01035,-0.0449 0.103741,-0.31241 0.132292,-0.36381 0.02677,-0.0482 0.07641,-0.0821 0.09922,-0.13229 0.141615,-0.31155 -0.0078,-0.13967 0.132291,-0.3638 0.02922,-0.0467 0.06718,-0.0874 0.09922,-0.13229 0.0231,-0.0324 0.0407,-0.0687 0.06615,-0.0992 0.02994,-0.0359 0.07203,-0.0612 0.09922,-0.0992 0.05493,-0.10986 0.06217,-0.13801 0.132291,-0.23151 0.08471,-0.11294 0.183624,-0.21507 0.264584,-0.33073 0.03686,-0.0527 0.05376,-0.11991 0.09922,-0.16536 0.03486,-0.0349 0.09337,-0.0359 0.132292,-0.0661 0.105833,-0.0823 0.165806,-0.17991 0.264583,-0.26458 0.347478,-0.29784 -0.0742,0.0766 0.264584,-0.16537 0.03806,-0.0272 0.06614,-0.0661 0.09922,-0.0992 0.02204,-0.022 0.0441,-0.0441 0.06615,-0.0661 0.02204,-0.022 0.04885,-0.0402 0.06615,-0.0661 0.02735,-0.041 0.03458,-0.0944 0.06615,-0.13229 0.02545,-0.0305 0.07111,-0.038 0.09922,-0.0661 0.02811,-0.0281 0.04131,-0.0682 0.06614,-0.0992 0.17684,-0.22105 -0.0677,0.15154 0.132292,-0.19844 0.03944,-0.069 0.09674,-0.12733 0.132292,-0.19844 0.0683,-0.1366 0.0062,-0.07 0.03307,-0.23151 0.004,-0.0243 0.02824,-0.042 0.03307,-0.0661 0.0065,-0.0324 0,-0.0661 0,-0.0992 0,-0.0772 0,-0.15434 0,-0.23151 0,-0.0551 0,-0.11024 0,-0.16537 0,-0.0551 0.0055,-0.11051 0,-0.16536 -0.02805,-0.28052 -0.0298,-0.053 -0.09922,-0.33073 -0.01892,-0.0756 -0.01913,-0.15481 -0.03307,-0.23151 -0.0081,-0.0447 -0.0232,-0.0879 -0.03307,-0.13229 -0.0122,-0.0549 -0.02088,-0.11049 -0.03307,-0.16537 -0.0099,-0.0444 -0.01516,-0.0905 -0.03307,-0.13229 -0.01566,-0.0365 -0.04409,-0.0661 -0.06615,-0.0992 -0.01103,-0.0661 -0.01016,-0.13541 -0.03307,-0.19844 -0.02196,-0.0604 -0.07262,-0.10684 -0.09922,-0.16536 -0.04168,-0.12504 -0.07707,-0.24415 -0.132292,-0.3638 -0.04132,-0.0895 -0.09345,-0.17395 -0.132292,-0.26459 -0.231198,-0.53946 0.103156,0.11954 -0.165364,-0.3638 -0.02395,-0.0431 -0.03458,-0.0944 -0.06615,-0.13229 -0.02545,-0.0305 -0.07111,-0.038 -0.09922,-0.0662 -0.02811,-0.0281 -0.04409,-0.0661 -0.06615,-0.0992 -0.03307,-0.022 -0.06818,-0.0413 -0.09922,-0.0661 -0.10137,-0.0811 -0.100952,-0.17556 -0.231511,-0.23151 -0.04178,-0.0179 -0.08917,-0.0187 -0.132291,-0.0331 -0.05632,-0.0188 -0.106805,-0.0564 -0.165365,-0.0661 -0.07612,-0.0127 -0.155115,0.0109 -0.23151,0 -0.07945,-0.0113 -0.151956,-0.0555 -0.231511,-0.0661 -0.08742,-0.0117 -0.176387,0 -0.264583,0 -0.09922,0 -0.199118,-0.0116 -0.297656,0 -0.09029,0.0106 -0.175231,0.0494 -0.264584,0.0661 -0.08736,0.0164 -0.178355,0.0115 -0.264583,0.0331 -0.180703,0.0452 -0.322845,0.13657 -0.496094,0.19844 -0.322445,0.11516 -0.147063,0.007 -0.463021,0.16537 -0.05749,0.0288 -0.106026,0.0745 -0.165364,0.0992 -0.465691,0.19404 0.0029,-0.0883 -0.463021,0.19844 -0.06727,0.0414 -0.257585,0.16882 -0.330729,0.23151 -0.05919,0.0507 -0.104492,0.11667 -0.165365,0.16537 -0.175837,0.14067 -0.02714,0.0316 -0.165364,0.0661 -0.04783,0.012 -0.08552,0.0506 -0.132292,0.0661 -0.08351,0.0278 0.03444,-0.0672 -0.09922,0.0331 -0.02495,0.0187 -0.04409,0.0441 -0.06615,0.0661 -0.02204,0.022 -0.04409,0.0441 -0.06615,0.0661 -0.08268,0.0827 -0.178109,0.15778 -0.23151,0.26459 -0.01558,0.0312 -0.01934,0.0672 -0.03307,0.0992 -0.01942,0.0453 -0.0526,0.0849 -0.06615,0.13229 -0.0091,0.0318 0,0.0661 0,0.0992 0,0.0331 0,0.0661 0,0.0992 0,0.022 -0.0082,0.0457 0,0.0661 0.04625,0.11562 0.06722,0.0786 0.132292,0.16536 0.01479,0.0197 0.01828,0.0464 0.03307,0.0661 0.03742,0.0499 0.09487,0.0824 0.132292,0.13229 0.03832,0.0511 0.0625,0.14337 0.09922,0.19844 0.05066,0.076 0.01889,-0.0142 0.09922,0.0662 0.07222,0.0722 0.0069,0.0537 0.03307,0.13229 0.0265,0.0795 0.06441,-0.0261 0.03307,0.0992 -0.01884,0.0753 -0.0513,0.0724 -0.09922,0.13229 -0.02484,0.031 -0.03804,0.0711 -0.06615,0.0992 -0.02811,0.0281 -0.07111,0.038 -0.09922,0.0661 -0.261409,0.26141 0.05357,0.0155 -0.198438,0.23151 -0.04185,0.0359 -0.09331,0.0602 -0.132292,0.0992 -0.02811,0.0281 -0.04131,0.0682 -0.06614,0.0992 -0.01947,0.0243 -0.04744,0.0412 -0.06615,0.0661 -0.01479,0.0197 -0.01828,0.0464 -0.03307,0.0661 -0.01871,0.0249 -0.0522,0.0383 -0.06615,0.0661 -0.0099,0.0197 0.007,0.0452 0,0.0661 -0.0049,0.0148 -0.02609,0.0191 -0.03307,0.0331 -0.0049,0.01 0,0.022 0,0.0331 0,0.011 0,0.022 0,0.0331 0,0.0217 -0.0062,0.0806 0,0.0992 0.0078,0.0234 0.02204,0.0441 0.03307,0.0661 0.02204,0.0441 0.0441,0.0882 0.06615,0.13229 0.01103,0.022 0.02709,0.0422 0.03307,0.0661 0.0053,0.0214 -0.0043,0.0445 0,0.0662 0.0068,0.0342 0.02625,0.065 0.03307,0.0992 0.01082,0.0541 -0.0078,0.1108 0,0.16536 0.0064,0.045 0.02743,0.0872 0.03307,0.1323 0.0055,0.0438 -0.0096,0.0892 0,0.13229 0.01288,0.058 0.04203,0.11111 0.06614,0.16536 0.03971,0.0893 0.08846,0.17691 0.132292,0.26458 0.01103,0.022 0.02527,0.0428 0.03307,0.0661 0.007,0.0209 -0.01558,0.0506 0,0.0662 0.0078,0.008 0.0232,-0.005 0.03307,0 0.03969,0.0198 0.05953,0.0794 0.09922,0.0992 0.0099,0.005 0.0232,-0.005 0.03307,0 0.02789,0.0139 0.0402,0.0488 0.06615,0.0661 0.02051,0.0137 0.0441,0.022 0.06615,0.0331 0.02204,0.011 0.04223,0.0271 0.06615,0.0331 0.02138,0.005 0.04453,-0.004 0.06615,0 0.03418,0.007 0.06483,0.0273 0.09922,0.0331 0.03262,0.005 0.06679,-0.006 0.09922,0 0.02418,0.005 0.04223,0.0271 0.06615,0.0331 0.02998,0.007 0.126945,0 0.165365,0 0.01103,0 0.02204,0 0.03307,0 0.01103,0 0.02527,0.008 0.03307,0 0.0078,-0.008 -0.0099,-0.0281 0,-0.0331 0.01971,-0.01 0.04643,0.01 0.06614,0 0,-0.0661 -0.01103,-0.011 0.03307,-0.0331 0.01394,-0.007 0.02609,-0.0191 0.03307,-0.0331 0.0049,-0.01 -0.0099,-0.0281 0,-0.0331 0.04066,-0.0203 0.08917,-0.0187 0.132292,-0.0331 0.05632,-0.0188 0.110244,-0.0441 0.165365,-0.0661 0.05512,-0.022 0.111114,-0.042 0.165364,-0.0661 0.07639,-0.034 0.165005,-0.0791 0.231511,-0.1323 0.102179,-0.0817 0.0375,-0.0397 0.09922,-0.13229 0.0087,-0.013 0.02609,-0.0191 0.03307,-0.0331 0.0049,-0.01 -0.0078,-0.0253 0,-0.0331 0.0078,-0.008 0.03307,-0.011 0.03307,0 0,0.011 -0.02204,0 -0.03307,0"
         style="fill:none;stroke:#646464;stroke-width:0.3;stroke-linecap:butt;stroke-linejoin:miter;stroke-opacity:1;stroke-miterlimit:4;stroke-dasharray:none" />
      <path
         inkscape:connector-curvature="0"
         id="path1109"
         d="m 57.183072,273.9151 c 0.07975,-0.009 0.125492,0.0871 0.198438,0.0992 0.0435,0.007 0.0882,0 0.132291,0 0.06615,0 0.132292,0 0.198438,0 0.0882,0 0.17639,0 0.264583,0 0.09922,0 0.199435,0.014 0.297656,0 0.134993,-0.0193 0.264584,-0.0661 0.396875,-0.0992 0.132292,-0.0331 0.264928,-0.0648 0.396875,-0.0992 0.121627,-0.0317 0.240975,-0.0725 0.363803,-0.0992 0.805608,-0.17513 -0.01206,0.0544 0.793749,-0.16536 0.547236,-0.14925 0.115832,-0.0447 0.628386,-0.19844 0.120396,-0.0361 0.241858,-0.0687 0.363802,-0.0992 0.491178,-0.12279 0.103468,-0.0205 0.628385,-0.0992 0.309277,-0.0464 0.522304,-0.11652 0.79375,-0.26459 0.05643,-0.0308 0.113941,-0.0607 0.165365,-0.0992 0.07987,-0.0599 0.164222,-0.17562 0.198437,-0.26458 0.03263,-0.0849 0.02971,-0.1813 0.06615,-0.26458 0.04169,-0.0953 0.125767,-0.16842 0.165365,-0.26459 0.0387,-0.094 0.03894,-0.19972 0.06615,-0.29765 0.02799,-0.10077 0.06971,-0.19732 0.09922,-0.29766 0.02564,-0.0872 0.03557,-0.17897 0.06615,-0.26458 0.02487,-0.0696 0.07009,-0.13047 0.09922,-0.19844 0.02119,-0.0495 0.145307,-0.38278 0.165365,-0.46302 0.01627,-0.0651 0.01799,-0.1331 0.03307,-0.19844 0.04603,-0.19947 0.08515,-0.23299 0.09922,-0.42995 0.0063,-0.088 0,-0.17638 0,-0.26458 0,-0.18391 0.0123,-0.38072 -0.03307,-0.56224 -0.02529,-0.10117 -0.190127,-0.48407 -0.23151,-0.56224 -0.09732,-0.18383 -0.232844,-0.34563 -0.330729,-0.52917 -0.03951,-0.0741 -0.05414,-0.16067 -0.09922,-0.23151 -0.03348,-0.0526 -0.09653,-0.0812 -0.132292,-0.13229 -0.04241,-0.0606 -0.06117,-0.13502 -0.09922,-0.19844 -0.02836,-0.0473 -0.07245,-0.0841 -0.09922,-0.13229 -0.02883,-0.0519 -0.04331,-0.11056 -0.06615,-0.16536 -0.03229,-0.0775 -0.06167,-0.15642 -0.09922,-0.23151 -0.02875,-0.0575 -0.07449,-0.10603 -0.09922,-0.16537 -0.03087,-0.0741 -0.03453,-0.15774 -0.06615,-0.23151 -0.168545,-0.39327 -0.08165,-0.0789 -0.297657,-0.42994 -0.044,-0.0715 -0.05902,-0.15781 -0.09922,-0.23152 -0.02641,-0.0484 -0.06718,-0.0874 -0.09922,-0.13229 -0.0231,-0.0323 -0.04132,-0.0682 -0.06615,-0.0992 -0.03896,-0.0487 -0.100206,-0.0788 -0.132292,-0.13229 -0.01794,-0.0299 -0.01513,-0.0693 -0.03307,-0.0992 -0.04909,-0.0818 -0.09777,-0.0647 -0.165365,-0.13229 -0.06064,-0.0606 -0.05593,-0.12172 -0.132292,-0.16536 -0.125783,-0.0719 -0.194048,-0.0688 -0.330729,-0.0992 -0.04437,-0.01 -0.08702,-0.029 -0.132292,-0.0331 -0.112834,-0.0103 -0.353739,-5.3e-4 -0.46302,0.0331 -0.07068,0.0217 -0.129413,0.0727 -0.198438,0.0992 -0.07491,0.0288 -0.155371,0.0408 -0.23151,0.0661 -0.08936,0.0298 -0.173204,0.0764 -0.264584,0.0992 -0.140956,0.0352 -0.352864,0.0271 -0.496093,0.0661 -0.04756,0.013 -0.08552,0.0505 -0.132292,0.0661 -0.0209,0.007 -0.04409,0 -0.06615,0 -0.03307,0.011 -0.06685,0.0201 -0.09922,0.0331 -0.08591,0.0344 -0.13454,0.10146 -0.198437,0.16536 -0.02204,0.022 -0.04744,0.0412 -0.06615,0.0661 -0.01479,0.0197 -0.02204,0.0441 -0.03307,0.0661 -0.01103,0.022 -0.02902,0.0418 -0.03307,0.0661 -0.0072,0.0435 0,0.0882 0,0.13229 0,0.0331 0,0.0661 0,0.0992 0,0.0331 -0.01228,0.0685 0,0.0992 0.01159,0.029 0.04744,0.0412 0.06615,0.0661 0.01479,0.0197 0.01828,0.0464 0.03307,0.0661 0.06108,0.0814 0.206573,0.16483 0.23151,0.26458 0.0053,0.0214 0,0.0441 0,0.0661 0,0.022 0.0099,0.0464 0,0.0661 -0.04696,0.0939 -0.296833,0.19245 -0.363802,0.23152 -0.06867,0.04 -0.133747,0.0861 -0.198437,0.13229 -0.286078,0.20434 -0.215527,0.14938 -0.429948,0.3638 -0.05512,0.0551 -0.113575,0.1071 -0.165365,0.16536 -0.186211,0.20949 -0.0231,0.0537 -0.165364,0.23151 -0.01947,0.0244 -0.0501,0.0394 -0.06615,0.0661 -0.01794,0.0299 -0.02014,0.0669 -0.03307,0.0992 -0.01831,0.0458 -0.05055,0.0855 -0.06615,0.13229 -0.0035,0.0104 0.0027,0.0224 0,0.0331 -0.0084,0.0338 -0.02625,0.065 -0.03307,0.0992 -0.0043,0.0216 0,0.0441 0,0.0661 0,0.0331 0,0.0661 0,0.0992 0,0.0331 -0.0091,0.0674 0,0.0992 0.01355,0.0474 0.05419,0.0845 0.06615,0.13229 0.01069,0.0428 -0.0049,0.0885 0,0.13229 0.01109,0.0997 0.04443,0.19993 0.06615,0.29765 0.0122,0.0549 0.01333,0.11274 0.03307,0.16537 0.01397,0.0372 0.05358,0.0615 0.06615,0.0992 0.01045,0.0314 -0.0065,0.0668 0,0.0992 0.0048,0.0242 0.02204,0.0441 0.03307,0.0661 0.01103,0.022 0.01828,0.0464 0.03307,0.0661 0.01871,0.0249 0.04667,0.0418 0.06614,0.0661 0.02484,0.031 0.0441,0.0662 0.06615,0.0992 0.07413,0.1112 0.144354,0.22905 0.231511,0.33073 0.120943,0.1411 0.08213,0.0677 0.23151,0.19844 0.31845,0.31845 -0.02035,-0.003 0.23151,0.19844 0.02434,0.0195 0.0412,0.0474 0.06615,0.0661 0.01971,0.0148 0.04872,0.0156 0.06615,0.0331 0.0078,0.008 -0.0078,0.0253 0,0.0331 0.0068,0.007 0.08611,-0.007 0.09922,0 0.01394,0.007 0.02011,0.0244 0.03307,0.0331 0.04102,0.0273 0.09285,0.0366 0.132291,0.0661 0.02495,0.0187 0.0418,0.0467 0.06615,0.0661 0.06208,0.0497 0.132292,0.0882 0.198438,0.1323 0.08362,0.0557 0.100631,0.0796 0.198437,0.0992 0.01786,0.004 0.181941,0.004 0.198438,0 0.02392,-0.006 0.04643,-0.0183 0.06615,-0.0331 0.121089,-0.0908 0.0065,-0.0683 0.198437,-0.13229 0.05333,-0.0178 0.11049,-0.0209 0.165365,-0.0331 0.08874,-0.0197 0.175839,-0.0464 0.264583,-0.0662 0.05487,-0.0122 0.110831,-0.0194 0.165365,-0.0331 0.288895,-0.0722 -0.06862,0.0178 0.165364,-0.0992 0.01971,-0.01 0.04523,0.007 0.06615,0 0.01479,-0.005 0.02204,-0.022 0.03307,-0.0331 0.01103,-0.011 0.02204,-0.022 0.03307,-0.0331 0.0441,-0.0441 0.0882,-0.0882 0.132291,-0.13229 0.111602,-0.1116 0.03941,-0.0501 0.231511,-0.16536"
         style="fill:none;stroke:#646464;stroke-width:0.3;stroke-linecap:butt;stroke-linejoin:miter;stroke-opacity:1;stroke-miterlimit:4;stroke-dasharray:none" />
    </g>
    <g
       id="g1885">
      <circle
         r="9.9494238"
         cy="264.04321"
         cx="107.76308"
         id="path5075-9"
         style="opacity:0.98999999;fill:#ffffff;fill-opacity:1;stroke:#000000;stroke-width:0.3;stroke-miterlimit:4;stroke-dasharray:none;stroke-opacity:1" />
      <path
         inkscape:connector-curvature="0"
         id="path5108-7"
         d="m 75.763073,263.99206 h 22"
         style="fill:none;stroke:#646464;stroke-width:0.3;stroke-linecap:butt;stroke-linejoin:miter;stroke-miterlimit:4;stroke-dasharray:none;stroke-opacity:1" />
      <path
         inkscape:connector-curvature="0"
         id="path5108-5-3"
         d="m 117.76307,264.00904 h 22"
         style="fill:none;stroke:#646464;stroke-width:0.3;stroke-linecap:butt;stroke-linejoin:miter;stroke-miterlimit:4;stroke-dasharray:none;stroke-opacity:1" />
      <path
         sodipodi:nodetypes="ccc"
         inkscape:connector-curvature="0"
         id="path5125-6"
         d="m 87.765753,260.12435 c 4.478849,0 6.947092,-1.23827 10.806488,-4.32002 2.542729,-1.92087 5.635889,-3.14424 9.193509,-3.11819"
         style="fill:none;stroke:#646464;stroke-width:0.3;stroke-linecap:butt;stroke-linejoin:miter;stroke-miterlimit:4;stroke-dasharray:none;stroke-opacity:1" />
      <path
         sodipodi:nodetypes="cc"
         inkscape:connector-curvature="0"
         id="path5164-1"
         d="m 87.795989,256.08966 c 9.025071,-1.19885 10.277808,-5.43687 19.969761,-5.43687"
         style="fill:none;stroke:#646464;stroke-width:0.3;stroke-linecap:butt;stroke-linejoin:miter;stroke-miterlimit:4;stroke-dasharray:none;stroke-opacity:1" />
      <path
         inkscape:connector-curvature="0"
         id="path5221-2"
         d="m 87.765753,260.12435 h -12"
         style="fill:none;stroke:#646464;stroke-width:0.3;stroke-linecap:butt;stroke-linejoin:miter;stroke-miterlimit:4;stroke-dasharray:none;stroke-opacity:1" />
      <path
         sodipodi:nodetypes="cc"
         inkscape:connector-curvature="0"
         id="path5223-9"
         d="m 87.795989,256.08966 c -5.111693,0.62322 -8.023391,0.8245 -12.030236,0.93192"
         style="fill:none;stroke:#646464;stroke-width:0.3;stroke-linecap:butt;stroke-linejoin:miter;stroke-miterlimit:4;stroke-dasharray:none;stroke-opacity:1" />
      <path
         sodipodi:nodetypes="ccc"
         inkscape:connector-curvature="0"
         id="path5125-1-3"
         d="m 127.65438,260.12476 c -4.47885,0 -6.94709,-1.23827 -10.80648,-4.32002 -2.54273,-1.92087 -5.63589,-3.14424 -9.19352,-3.11819"
         style="fill:none;stroke:#646464;stroke-width:0.3;stroke-linecap:butt;stroke-linejoin:miter;stroke-miterlimit:4;stroke-dasharray:none;stroke-opacity:1" />
      <path
         sodipodi:nodetypes="cc"
         inkscape:connector-curvature="0"
         id="path5164-2-1"
         d="m 127.62415,256.09007 c -9.02507,-1.19885 -10.27781,-5.43687 -19.96977,-5.43687"
         style="fill:none;stroke:#646464;stroke-width:0.3;stroke-linecap:butt;stroke-linejoin:miter;stroke-miterlimit:4;stroke-dasharray:none;stroke-opacity:1" />
      <path
         inkscape:connector-curvature="0"
         id="path5221-9-9"
         d="m 127.65438,260.12476 h 12"
         style="fill:none;stroke:#646464;stroke-width:0.3;stroke-linecap:butt;stroke-linejoin:miter;stroke-miterlimit:4;stroke-dasharray:none;stroke-opacity:1" />
      <path
         sodipodi:nodetypes="cc"
         inkscape:connector-curvature="0"
         id="path5223-3-4"
         d="m 127.62415,256.09007 c 5.11169,0.62322 8.02339,0.8245 12.03023,0.93192"
         style="fill:none;stroke:#646464;stroke-width:0.3;stroke-linecap:butt;stroke-linejoin:miter;stroke-miterlimit:4;stroke-dasharray:none;stroke-opacity:1" />
      <path
         sodipodi:nodetypes="ccc"
         inkscape:connector-curvature="0"
         id="path5125-19-7"
         d="m 87.765753,268.02044 c 4.478849,0 6.947092,1.23827 10.806488,4.32002 2.542729,1.92087 5.635889,3.14424 9.193509,3.11819"
         style="fill:none;stroke:#646464;stroke-width:0.3;stroke-linecap:butt;stroke-linejoin:miter;stroke-miterlimit:4;stroke-dasharray:none;stroke-opacity:1" />
      <path
         sodipodi:nodetypes="cc"
         inkscape:connector-curvature="0"
         id="path5164-4-8"
         d="m 87.795989,272.05513 c 9.025071,1.19885 10.277808,5.43687 19.969761,5.43687"
         style="fill:none;stroke:#646464;stroke-width:0.3;stroke-linecap:butt;stroke-linejoin:miter;stroke-miterlimit:4;stroke-dasharray:none;stroke-opacity:1" />
      <path
         inkscape:connector-curvature="0"
         id="path5221-7-4"
         d="m 87.765753,268.02044 h -12"
         style="fill:none;stroke:#646464;stroke-width:0.3;stroke-linecap:butt;stroke-linejoin:miter;stroke-miterlimit:4;stroke-dasharray:none;stroke-opacity:1" />
      <path
         sodipodi:nodetypes="cc"
         inkscape:connector-curvature="0"
         id="path5223-8-5"
         d="m 87.795989,272.05513 c -5.111693,-0.62322 -8.023391,-0.8245 -12.030236,-0.93192"
         style="fill:none;stroke:#646464;stroke-width:0.3;stroke-linecap:butt;stroke-linejoin:miter;stroke-miterlimit:4;stroke-dasharray:none;stroke-opacity:1" />
      <path
         sodipodi:nodetypes="ccc"
         inkscape:connector-curvature="0"
         id="path5125-1-4-0"
         d="m 127.65438,268.02003 c -4.47885,0 -6.94709,1.23827 -10.80648,4.32002 -2.54273,1.92087 -5.63589,3.14424 -9.19352,3.11819"
         style="fill:none;stroke:#646464;stroke-width:0.3;stroke-linecap:butt;stroke-linejoin:miter;stroke-miterlimit:4;stroke-dasharray:none;stroke-opacity:1" />
      <path
         sodipodi:nodetypes="cc"
         inkscape:connector-curvature="0"
         id="path5164-2-5-3"
         d="m 127.62415,272.05472 c -9.02507,1.19885 -10.27781,5.43687 -19.96977,5.43687"
         style="fill:none;stroke:#646464;stroke-width:0.3;stroke-linecap:butt;stroke-linejoin:miter;stroke-miterlimit:4;stroke-dasharray:none;stroke-opacity:1" />
      <path
         inkscape:connector-curvature="0"
         id="path5221-9-0-6"
         d="m 127.65438,268.02003 h 12"
         style="fill:none;stroke:#646464;stroke-width:0.3;stroke-linecap:butt;stroke-linejoin:miter;stroke-miterlimit:4;stroke-dasharray:none;stroke-opacity:1" />
      <path
         sodipodi:nodetypes="cc"
         inkscape:connector-curvature="0"
         id="path5223-3-3-1"
         d="m 127.62415,272.05472 c 5.11169,-0.62322 8.02339,-0.8245 12.03023,-0.93192"
         style="fill:none;stroke:#646464;stroke-width:0.3;stroke-linecap:butt;stroke-linejoin:miter;stroke-miterlimit:4;stroke-dasharray:none;stroke-opacity:1" />
    </g>
  </g>
</svg>
